<?xml version="1.0" encoding="UTF-8" standalone="no"?><!DOCTYPE svg PUBLIC "-//W3C//DTD SVG 1.1//EN" "http://www.w3.org/Graphics/SVG/1.1/DTD/svg11.dtd"><svg width="100%" height="100%" viewBox="0 0 100 100" version="1.1" xmlns="http://www.w3.org/2000/svg" xmlns:xlink="http://www.w3.org/1999/xlink" xml:space="preserve" xmlns:serif="http://www.serif.com/" style="fill-rule:evenodd;clip-rule:evenodd;stroke-linejoin:round;stroke-miterlimit:2;"><rect x="0" y="0" width="100" height="100" style="fill:none;fill-rule:nonzero;"/><path d="M58.583,37.583l3.834,3.834l-37.75,37.75l-3.834,-0l0,-3.834l37.75,-37.75m15,-25.083c-1.041,0 -2.125,0.417 -2.916,1.208l-7.625,7.625l15.625,15.625l7.625,-7.625c1.625,-1.625 1.625,-4.25 -0,-5.875l-9.75,-9.75c-0.834,-0.833 -1.875,-1.208 -2.959,-1.208Zm-15,13.292l-46.083,46.083l0,15.625l15.625,0l46.083,-46.083l-15.625,-15.625Z" style="fill-rule:nonzero;"/><rect x="47.272" y="38.728" width="17.61" height="10.468"/><rect x="52.873" y="33.897" width="8.687" height="7.06"/><rect x="51.535" y="40.688" width="2.886" height="20.152"/><rect x="47.245" y="43.284" width="10.913" height="12.212"/><rect x="18.963" y="67.333" width="12.26" height="14.862"/><rect x="25.858" y="60.085" width="14.783" height="13.828"/><rect x="39.863" y="48.356" width="9.958" height="12.409"/><rect x="33.173" y="55.311" width="11.814" height="13.481"/></svg>